# xmcd
#
# Track frame offsets: 
#        150
#        14690
#        31757
#        46187
#
# Disc length: 840 seconds
#
# Revision: 2
# Processed by: cddbd v1.5.2PL0 Copyright (c) Steve Scherf et al.
# Submitted via: ExactAudioCopy v1.0b3
#
DISCID=26034604
DTITLE=永井ルイ／ロビー・ダンジー - BIG-O!／and FOREVER…
DYEAR=1999
DGENRE=Anime
TTITLE0=BIG-O!　永井ルイ
TTITLE1=and FOREVER…　ロビー・ダンジー
TTITLE2=BIG-O!(ORIGINAL KARAOKE)
TTITLE3=and FOREVER…(ORIGINAL KARAOKE)
EXTD=
EXTT0=
EXTT1=
EXTT2=
EXTT3=
PLAYORDER=
